<mxfile host="app.diagrams.net" modified="2022-04-26T12:56:49.943Z" agent="5.0 (Macintosh; Intel Mac OS X 10_15_7) AppleWebKit/537.36 (KHTML, like Gecko) Chrome/100.0.4896.127 Safari/537.36" etag="0oNIKVbkYY4wzCEUh-9Z" version="17.4.6" type="github">
  <diagram id="-VhPfLfhFJK9CjB1TRd5" name="Page-1">
    <mxGraphModel dx="1234" dy="794" grid="1" gridSize="10" guides="1" tooltips="1" connect="1" arrows="1" fold="1" page="1" pageScale="2" pageWidth="827" pageHeight="1169" background="#FFFFFF" math="0" shadow="0">
      <root>
        <mxCell id="0" />
        <mxCell id="1" parent="0" />
        <mxCell id="k2aR3YVyECVCroUmC7og-57" value="Subnet" style="sketch=0;outlineConnect=0;gradientColor=none;html=1;whiteSpace=wrap;fontSize=12;fontStyle=0;shape=mxgraph.aws4.group;grIcon=mxgraph.aws4.group_subnet;strokeColor=#879196;fillColor=none;verticalAlign=top;align=left;spacingLeft=30;fontColor=#879196;dashed=0;" parent="1" vertex="1">
          <mxGeometry x="516" y="384.5" width="389" height="300.5" as="geometry" />
        </mxCell>
        <mxCell id="k2aR3YVyECVCroUmC7og-3" value="" style="outlineConnect=0;dashed=0;verticalLabelPosition=bottom;verticalAlign=top;align=center;html=1;shape=mxgraph.aws3.lambda;fillColor=#F58534;gradientColor=none;" parent="1" vertex="1">
          <mxGeometry x="1080" y="192.5" width="76.5" height="93" as="geometry" />
        </mxCell>
        <mxCell id="k2aR3YVyECVCroUmC7og-5" value="" style="outlineConnect=0;dashed=0;verticalLabelPosition=bottom;verticalAlign=top;align=center;html=1;shape=mxgraph.aws3.s3;fillColor=#E05243;gradientColor=none;" parent="1" vertex="1">
          <mxGeometry x="760" y="192.5" width="76.5" height="93" as="geometry" />
        </mxCell>
        <mxCell id="k2aR3YVyECVCroUmC7og-6" value="" style="outlineConnect=0;dashed=0;verticalLabelPosition=bottom;verticalAlign=top;align=center;html=1;shape=mxgraph.aws3.ec2;fillColor=#F58534;gradientColor=none;" parent="1" vertex="1">
          <mxGeometry x="766" y="487" width="76.5" height="93" as="geometry" />
        </mxCell>
        <mxCell id="k2aR3YVyECVCroUmC7og-7" value="" style="outlineConnect=0;dashed=0;verticalLabelPosition=bottom;verticalAlign=top;align=center;html=1;shape=mxgraph.aws3.lambda;fillColor=#F58534;gradientColor=none;" parent="1" vertex="1">
          <mxGeometry x="1083" y="790" width="76.5" height="93" as="geometry" />
        </mxCell>
        <mxCell id="k2aR3YVyECVCroUmC7og-8" value="" style="outlineConnect=0;dashed=0;verticalLabelPosition=bottom;verticalAlign=top;align=center;html=1;shape=mxgraph.aws3.cloudwatch;fillColor=#759C3E;gradientColor=none;" parent="1" vertex="1">
          <mxGeometry x="1080" y="592" width="82.5" height="93" as="geometry" />
        </mxCell>
        <mxCell id="k2aR3YVyECVCroUmC7og-9" value="" style="outlineConnect=0;dashed=0;verticalLabelPosition=bottom;verticalAlign=top;align=center;html=1;shape=mxgraph.aws3.redshift;fillColor=#2E73B8;gradientColor=none;" parent="1" vertex="1">
          <mxGeometry x="580" y="430" width="67.5" height="75" as="geometry" />
        </mxCell>
        <mxCell id="k2aR3YVyECVCroUmC7og-10" value="" style="aspect=fixed;html=1;points=[];align=center;image;fontSize=12;image=img/lib/azure2/databases/Azure_Database_PostgreSQL_Server.svg;" parent="1" vertex="1">
          <mxGeometry x="596" y="570" width="48" height="64" as="geometry" />
        </mxCell>
        <mxCell id="k2aR3YVyECVCroUmC7og-14" value="" style="endArrow=classic;html=1;rounded=0;strokeColor=#3333FF;entryX=0;entryY=0.5;entryDx=0;entryDy=0;entryPerimeter=0;" parent="1" source="k2aR3YVyECVCroUmC7og-5" target="k2aR3YVyECVCroUmC7og-3" edge="1">
          <mxGeometry width="50" height="50" relative="1" as="geometry">
            <mxPoint x="686" y="260" as="sourcePoint" />
            <mxPoint x="766" y="247" as="targetPoint" />
          </mxGeometry>
        </mxCell>
        <mxCell id="k2aR3YVyECVCroUmC7og-15" value="" style="endArrow=classic;html=1;rounded=0;exitX=0.5;exitY=1;exitDx=0;exitDy=0;exitPerimeter=0;strokeColor=#3333FF;startArrow=none;entryX=1;entryY=0.5;entryDx=0;entryDy=0;entryPerimeter=0;" parent="1" source="k2aR3YVyECVCroUmC7og-4" target="k2aR3YVyECVCroUmC7og-6" edge="1">
          <mxGeometry width="50" height="50" relative="1" as="geometry">
            <mxPoint x="682.5" y="256.5" as="sourcePoint" />
            <mxPoint x="758.3603238866397" y="420" as="targetPoint" />
            <Array as="points">
              <mxPoint x="1120" y="534" />
            </Array>
          </mxGeometry>
        </mxCell>
        <mxCell id="k2aR3YVyECVCroUmC7og-16" value="DataOnDemand&lt;br&gt;Data Partner" style="whiteSpace=wrap;html=1;aspect=fixed;fillColor=#dae8fc;strokeColor=#6c8ebf;" parent="1" vertex="1">
          <mxGeometry x="290" y="184" width="110" height="110" as="geometry" />
        </mxCell>
        <mxCell id="k2aR3YVyECVCroUmC7og-17" value="" style="endArrow=classic;html=1;rounded=0;strokeColor=#3333FF;entryX=0;entryY=0.5;entryDx=0;entryDy=0;entryPerimeter=0;exitX=1;exitY=0.5;exitDx=0;exitDy=0;" parent="1" source="k2aR3YVyECVCroUmC7og-16" target="k2aR3YVyECVCroUmC7og-5" edge="1">
          <mxGeometry width="50" height="50" relative="1" as="geometry">
            <mxPoint x="410" y="240" as="sourcePoint" />
            <mxPoint x="610" y="250" as="targetPoint" />
          </mxGeometry>
        </mxCell>
        <mxCell id="k2aR3YVyECVCroUmC7og-19" value="S3 Bucket" style="text;html=1;align=center;verticalAlign=middle;resizable=0;points=[];autosize=1;strokeColor=none;fillColor=none;" parent="1" vertex="1">
          <mxGeometry x="807" y="285.5" width="70" height="20" as="geometry" />
        </mxCell>
        <mxCell id="k2aR3YVyECVCroUmC7og-20" value="Lambda" style="text;html=1;align=center;verticalAlign=middle;resizable=0;points=[];autosize=1;strokeColor=none;fillColor=none;" parent="1" vertex="1">
          <mxGeometry x="1120" y="285.5" width="60" height="20" as="geometry" />
        </mxCell>
        <mxCell id="k2aR3YVyECVCroUmC7og-21" value="IAM" style="text;html=1;align=center;verticalAlign=middle;resizable=0;points=[];autosize=1;strokeColor=none;fillColor=none;" parent="1" vertex="1">
          <mxGeometry x="1130" y="379.5" width="40" height="20" as="geometry" />
        </mxCell>
        <mxCell id="k2aR3YVyECVCroUmC7og-22" value="Redshift" style="text;html=1;align=center;verticalAlign=middle;resizable=0;points=[];autosize=1;strokeColor=none;fillColor=none;" parent="1" vertex="1">
          <mxGeometry x="520" y="457.5" width="60" height="20" as="geometry" />
        </mxCell>
        <mxCell id="k2aR3YVyECVCroUmC7og-23" value="PostgreSQL" style="text;html=1;align=center;verticalAlign=middle;resizable=0;points=[];autosize=1;strokeColor=none;fillColor=none;" parent="1" vertex="1">
          <mxGeometry x="516" y="592" width="80" height="20" as="geometry" />
        </mxCell>
        <mxCell id="k2aR3YVyECVCroUmC7og-24" value="EC2" style="text;html=1;align=center;verticalAlign=middle;resizable=0;points=[];autosize=1;strokeColor=none;fillColor=none;" parent="1" vertex="1">
          <mxGeometry x="807" y="572" width="40" height="20" as="geometry" />
        </mxCell>
        <mxCell id="k2aR3YVyECVCroUmC7og-25" value="CloudWatch" style="text;html=1;align=center;verticalAlign=middle;resizable=0;points=[];autosize=1;strokeColor=none;fillColor=none;" parent="1" vertex="1">
          <mxGeometry x="1130" y="680" width="80" height="20" as="geometry" />
        </mxCell>
        <mxCell id="k2aR3YVyECVCroUmC7og-26" value="Lambda" style="text;html=1;align=center;verticalAlign=middle;resizable=0;points=[];autosize=1;strokeColor=none;fillColor=none;" parent="1" vertex="1">
          <mxGeometry x="1140" y="870" width="60" height="20" as="geometry" />
        </mxCell>
        <mxCell id="k2aR3YVyECVCroUmC7og-27" value="" style="endArrow=classic;html=1;rounded=0;strokeColor=#009900;exitX=0.314;exitY=0.032;exitDx=0;exitDy=0;exitPerimeter=0;" parent="1" source="k2aR3YVyECVCroUmC7og-6" target="k2aR3YVyECVCroUmC7og-9" edge="1">
          <mxGeometry width="50" height="50" relative="1" as="geometry">
            <mxPoint x="682.5" y="249" as="sourcePoint" />
            <mxPoint x="776" y="249" as="targetPoint" />
            <Array as="points">
              <mxPoint x="790" y="468" />
            </Array>
          </mxGeometry>
        </mxCell>
        <mxCell id="k2aR3YVyECVCroUmC7og-29" value="" style="endArrow=classic;startArrow=classic;html=1;rounded=0;strokeColor=#009900;" parent="1" edge="1">
          <mxGeometry width="50" height="50" relative="1" as="geometry">
            <mxPoint x="645" y="610" as="sourcePoint" />
            <mxPoint x="790" y="580" as="targetPoint" />
            <Array as="points">
              <mxPoint x="725" y="610" />
              <mxPoint x="735" y="610" />
              <mxPoint x="790" y="610" />
            </Array>
          </mxGeometry>
        </mxCell>
        <mxCell id="k2aR3YVyECVCroUmC7og-4" value="" style="outlineConnect=0;dashed=0;verticalLabelPosition=bottom;verticalAlign=top;align=center;html=1;shape=mxgraph.aws3.iam;fillColor=#759C3E;gradientColor=none;" parent="1" vertex="1">
          <mxGeometry x="1098" y="349" width="42" height="81" as="geometry" />
        </mxCell>
        <mxCell id="k2aR3YVyECVCroUmC7og-30" value="" style="endArrow=none;html=1;rounded=0;exitX=0.5;exitY=1;exitDx=0;exitDy=0;exitPerimeter=0;strokeColor=#3333FF;" parent="1" source="k2aR3YVyECVCroUmC7og-3" target="k2aR3YVyECVCroUmC7og-4" edge="1">
          <mxGeometry width="50" height="50" relative="1" as="geometry">
            <mxPoint x="1118.25" y="285.5" as="sourcePoint" />
            <mxPoint x="842.5" y="503.28980891719743" as="targetPoint" />
          </mxGeometry>
        </mxCell>
        <mxCell id="k2aR3YVyECVCroUmC7og-32" value="" style="endArrow=classic;startArrow=classic;html=1;rounded=0;strokeColor=#009900;exitX=0.418;exitY=0.043;exitDx=0;exitDy=0;exitPerimeter=0;" parent="1" edge="1">
          <mxGeometry width="50" height="50" relative="1" as="geometry">
            <mxPoint x="800.9770000000001" y="489.999" as="sourcePoint" />
            <mxPoint x="801" y="285" as="targetPoint" />
          </mxGeometry>
        </mxCell>
        <mxCell id="k2aR3YVyECVCroUmC7og-33" value="" style="endArrow=classic;html=1;rounded=0;strokeColor=#FF0000;entryX=0.1;entryY=0.5;entryDx=0;entryDy=0;entryPerimeter=0;" parent="1" target="k2aR3YVyECVCroUmC7og-8" edge="1">
          <mxGeometry width="50" height="50" relative="1" as="geometry">
            <mxPoint x="800" y="580" as="sourcePoint" />
            <mxPoint x="1080" y="640" as="targetPoint" />
            <Array as="points">
              <mxPoint x="800" y="639" />
            </Array>
          </mxGeometry>
        </mxCell>
        <mxCell id="k2aR3YVyECVCroUmC7og-34" value="" style="endArrow=classic;html=1;rounded=0;strokeColor=#FF0000;exitX=0.5;exitY=1;exitDx=0;exitDy=0;exitPerimeter=0;entryX=0.5;entryY=0;entryDx=0;entryDy=0;entryPerimeter=0;" parent="1" source="k2aR3YVyECVCroUmC7og-8" target="k2aR3YVyECVCroUmC7og-7" edge="1">
          <mxGeometry width="50" height="50" relative="1" as="geometry">
            <mxPoint x="852.5" y="543.5" as="sourcePoint" />
            <mxPoint x="1090" y="543.5" as="targetPoint" />
          </mxGeometry>
        </mxCell>
        <mxCell id="k2aR3YVyECVCroUmC7og-36" value="" style="endArrow=classic;html=1;rounded=0;strokeColor=#FF0000;exitX=0;exitY=0.5;exitDx=0;exitDy=0;exitPerimeter=0;" parent="1" source="k2aR3YVyECVCroUmC7og-7" edge="1">
          <mxGeometry width="50" height="50" relative="1" as="geometry">
            <mxPoint x="810" y="580" as="sourcePoint" />
            <mxPoint x="807" y="580" as="targetPoint" />
            <Array as="points">
              <mxPoint x="807" y="837" />
            </Array>
          </mxGeometry>
        </mxCell>
        <mxCell id="k2aR3YVyECVCroUmC7og-39" value="1" style="ellipse;whiteSpace=wrap;html=1;aspect=fixed;fillColor=#fff2cc;strokeColor=#d6b656;" parent="1" vertex="1">
          <mxGeometry x="920" y="200" width="30" height="30" as="geometry" />
        </mxCell>
        <mxCell id="k2aR3YVyECVCroUmC7og-40" value="2" style="ellipse;whiteSpace=wrap;html=1;aspect=fixed;fillColor=#fff2cc;strokeColor=#d6b656;" parent="1" vertex="1">
          <mxGeometry x="717" y="420" width="30" height="30" as="geometry" />
        </mxCell>
        <mxCell id="k2aR3YVyECVCroUmC7og-41" value="3" style="ellipse;whiteSpace=wrap;html=1;aspect=fixed;fillColor=#fff2cc;strokeColor=#d6b656;" parent="1" vertex="1">
          <mxGeometry x="920" y="650" width="30" height="30" as="geometry" />
        </mxCell>
        <mxCell id="k2aR3YVyECVCroUmC7og-42" value="Sending completion status of&lt;br&gt;&amp;nbsp;process to CW to terminate EC2" style="text;html=1;align=center;verticalAlign=middle;resizable=0;points=[];autosize=1;strokeColor=none;fillColor=none;" parent="1" vertex="1">
          <mxGeometry x="860" y="720" width="190" height="30" as="geometry" />
        </mxCell>
        <mxCell id="k2aR3YVyECVCroUmC7og-43" value="Lambda will look for new file in &lt;br&gt;specific S3 location and launch &lt;br&gt;EC2 instance to begin the process" style="text;html=1;align=center;verticalAlign=middle;resizable=0;points=[];autosize=1;strokeColor=none;fillColor=none;" parent="1" vertex="1">
          <mxGeometry x="907" y="294" width="200" height="50" as="geometry" />
        </mxCell>
        <mxCell id="k2aR3YVyECVCroUmC7og-44" value="Ingestion Engine Process &lt;br&gt;Using Python program" style="text;html=1;align=center;verticalAlign=middle;resizable=0;points=[];autosize=1;strokeColor=none;fillColor=none;" parent="1" vertex="1">
          <mxGeometry x="590" y="518.5" width="150" height="30" as="geometry" />
        </mxCell>
        <mxCell id="k2aR3YVyECVCroUmC7og-45" value="1" style="ellipse;whiteSpace=wrap;html=1;aspect=fixed;fillColor=#fff2cc;strokeColor=#d6b656;" parent="1" vertex="1">
          <mxGeometry x="321" y="919" width="30" height="30" as="geometry" />
        </mxCell>
        <mxCell id="k2aR3YVyECVCroUmC7og-46" value="Pre DataIngestion Flow" style="text;html=1;align=center;verticalAlign=middle;resizable=0;points=[];autosize=1;strokeColor=none;fillColor=none;" parent="1" vertex="1">
          <mxGeometry x="405" y="926" width="140" height="20" as="geometry" />
        </mxCell>
        <mxCell id="k2aR3YVyECVCroUmC7og-47" value="2" style="ellipse;whiteSpace=wrap;html=1;aspect=fixed;fillColor=#fff2cc;strokeColor=#d6b656;" parent="1" vertex="1">
          <mxGeometry x="320" y="966" width="30" height="30" as="geometry" />
        </mxCell>
        <mxCell id="k2aR3YVyECVCroUmC7og-48" value="DataIngestion Flow" style="text;html=1;align=center;verticalAlign=middle;resizable=0;points=[];autosize=1;strokeColor=none;fillColor=none;" parent="1" vertex="1">
          <mxGeometry x="405" y="975" width="120" height="20" as="geometry" />
        </mxCell>
        <mxCell id="k2aR3YVyECVCroUmC7og-49" value="3" style="ellipse;whiteSpace=wrap;html=1;aspect=fixed;fillColor=#fff2cc;strokeColor=#d6b656;" parent="1" vertex="1">
          <mxGeometry x="320" y="1014" width="30" height="30" as="geometry" />
        </mxCell>
        <mxCell id="k2aR3YVyECVCroUmC7og-51" value="Post DataIngestion Flow" style="text;html=1;align=center;verticalAlign=middle;resizable=0;points=[];autosize=1;strokeColor=none;fillColor=none;" parent="1" vertex="1">
          <mxGeometry x="403" y="1018" width="150" height="20" as="geometry" />
        </mxCell>
        <mxCell id="k2aR3YVyECVCroUmC7og-53" value="" style="endArrow=classic;html=1;rounded=0;strokeColor=#009900;" parent="1" edge="1">
          <mxGeometry width="50" height="50" relative="1" as="geometry">
            <mxPoint x="360" y="984.5" as="sourcePoint" />
            <mxPoint x="410" y="984.5" as="targetPoint" />
            <Array as="points">
              <mxPoint x="360" y="984.5" />
            </Array>
          </mxGeometry>
        </mxCell>
        <mxCell id="k2aR3YVyECVCroUmC7og-54" value="" style="endArrow=classic;html=1;rounded=0;strokeColor=#0000FF;" parent="1" edge="1">
          <mxGeometry width="50" height="50" relative="1" as="geometry">
            <mxPoint x="359" y="935.5" as="sourcePoint" />
            <mxPoint x="409" y="935.5" as="targetPoint" />
            <Array as="points">
              <mxPoint x="359" y="935.5" />
            </Array>
          </mxGeometry>
        </mxCell>
        <mxCell id="k2aR3YVyECVCroUmC7og-55" value="" style="endArrow=classic;html=1;rounded=0;strokeColor=#CC0000;" parent="1" edge="1">
          <mxGeometry width="50" height="50" relative="1" as="geometry">
            <mxPoint x="360" y="1027.5" as="sourcePoint" />
            <mxPoint x="410" y="1027.5" as="targetPoint" />
            <Array as="points">
              <mxPoint x="360" y="1027.5" />
            </Array>
          </mxGeometry>
        </mxCell>
        <mxCell id="k2aR3YVyECVCroUmC7og-58" value="DataPartner placing .csv file into S3" style="text;html=1;align=center;verticalAlign=middle;resizable=0;points=[];autosize=1;strokeColor=none;fillColor=none;" parent="1" vertex="1">
          <mxGeometry x="480" y="205" width="210" height="20" as="geometry" />
        </mxCell>
        <mxCell id="k2aR3YVyECVCroUmC7og-59" value="EC2 will download the file from S3" style="text;html=1;align=center;verticalAlign=middle;resizable=0;points=[];autosize=1;strokeColor=none;fillColor=none;" parent="1" vertex="1">
          <mxGeometry x="601" y="329" width="200" height="20" as="geometry" />
        </mxCell>
        <mxCell id="k2aR3YVyECVCroUmC7og-60" value="VPC" style="sketch=0;outlineConnect=0;gradientColor=none;html=1;whiteSpace=wrap;fontSize=12;fontStyle=0;shape=mxgraph.aws4.group;grIcon=mxgraph.aws4.group_vpc;strokeColor=#879196;fillColor=none;verticalAlign=top;align=left;spacingLeft=30;fontColor=#879196;dashed=0;" parent="1" vertex="1">
          <mxGeometry x="450" y="140" width="810" height="760" as="geometry" />
        </mxCell>
      </root>
    </mxGraphModel>
  </diagram>
</mxfile>
